<?xml version="1.0" encoding="UTF-8"?>
<svg id="b" data-name="Scan" xmlns="http://www.w3.org/2000/svg" viewBox="0 0 512 512">
  <rect x="1" width="512" height="512" rx="72" ry="72" style="fill: #64b5f6;"/>
  <path d="M432.7944,175.636h-174.0182l-13.0273-52.114c-1.7934-7.1674-8.2048-12.1744-15.594-12.1744h-77.6356c-7.3889,0-13.8011,5.0069-15.594,12.1775l-13.0273,52.1109h-44.6915c-8.8605,0-16.0733,7.2099-16.0733,16.0733v192.8699c0,8.8605,7.2099,16.0733,16.0733,16.0733H432.7936c8.8605,0,16.0733-7.2099,16.0733-16.0733V191.7092c0-8.8636-7.2099-16.0733-16.0733-16.0733h.0008Zm-262.5319-35.2933h41.0294c8.0114,0,14.5662,6.5548,14.5662,14.5662v20.7271h-70.2884v-20.6006c0-8.081,6.6118-14.6928,14.6928-14.6928Zm101.8147,212.0838H111.3522V223.8464h160.725v128.58Zm80.3625,16.0733h-32.1442v-32.1442h32.1442v32.1442Zm-16.0709-112.5075c0-17.7543,14.3891-32.1442,32.1442-32.1442s32.1442,14.3891,32.1442,32.1442-14.3891,32.1442-32.1442,32.1442-32.1442-14.3922-32.1442-32.1442h0Zm80.3625,112.5075h-32.1442v-32.1442h32.1442v32.1442Z" style="fill: #fff;"/>
</svg>