<?xml version="1.0" encoding="UTF-8"?>
<svg id="bu" data-name="search" xmlns="http://www.w3.org/2000/svg" viewBox="0 0 24 24">
  <path id="bv" data-name="Icon metro-search" d="m21.3818,19.0186l-4.7397-4.028c-.2287-.2304-.5052-.4029-.8067-.5076-.2768-.0961-.3865-.4063-.2168-.6452,2.2464-3.1609,1.7186-7.582-1.3334-10.1127-3.0663-2.5426-7.7946-2.1673-10.4215.827-2.7641,3.1508-2.4092,7.9429.7692,10.6539,2.6324,2.2453,6.4302,2.3827,9.2052.4121.2385-.1694.5489-.0591.6448.2172.1047.3014.2772.5779.5076.8067l4.028,4.7397c.5863.7189,1.6443.8264,2.3632.2402.7189-.5863.8264-1.6443.2402-2.3632-.0717-.088-.1522-.1684-.2402-.2402Zm-11.8745-4.5175c-3.1121,0-5.56-2.8439-4.8867-6.0746.402-1.9289,1.9866-3.4718,3.9235-3.8332,3.7937-.7078,7.0112,2.8733,5.6398,6.7307-.6907,1.9428-2.6147,3.1771-4.6766,3.1771h0Z"/>
</svg>