<?xml version="1.0" encoding="UTF-8"?>
<svg id="bt" data-name="table" xmlns="http://www.w3.org/2000/svg" viewBox="0 0 24 24">
  <path id="bu" data-name="noun-spreadsheet-1084344" d="m15.6154,3.8396H3.3275c-.7332,0-1.3275.5944-1.3275,1.3275v13.6657c0,.7332.5944,1.3275,1.3275,1.3275h17.3449c.7332,0,1.3275-.5944,1.3275-1.3275V5.1671c0-.7332-.5944-1.3275-1.3275-1.3275h-5.0571Zm-7.3469,14.8754H3.4477v-2.79h4.8208v2.79Zm0-4.2354H3.4477v-3.3246h4.8208v3.3246Zm0-4.7738H3.4477v-3.1692h4.8208v3.1692Zm5.9015,9.01h-4.4562v-2.79h4.4562v2.79Zm0-4.2354h-4.4562v-3.3246h4.4562v3.3246Zm0-4.7738h-4.4562v-3.1692h4.4562v3.1692Zm6.3846,9.01h-4.94v-2.79h4.94v2.79Zm0-4.2354h-4.94v-3.3246h4.94v3.3246Zm0-4.7738h-4.94v-3.1692h4.94v3.1692Z"/>
</svg>